<svg width="67" height="67" viewBox="0 0 67 67" fill="none" xmlns="http://www.w3.org/2000/svg">
<path d="M64.2083 53.0417C64.2083 54.5225 63.6201 55.9426 62.573 56.9897C61.5259 58.0368 60.1058 58.625 58.625 58.625H8.375C6.89421 58.625 5.47406 58.0368 4.42698 56.9897C3.37991 55.9426 2.79166 54.5225 2.79166 53.0417V22.3333C2.79166 20.8525 3.37991 19.4324 4.42698 18.3853C5.47406 17.3382 6.89421 16.75 8.375 16.75H19.5417L25.125 8.375H41.875L47.4583 16.75H58.625C60.1058 16.75 61.5259 17.3382 62.573 18.3853C63.6201 19.4324 64.2083 20.8525 64.2083 22.3333V53.0417Z" stroke="black" stroke-width="2" stroke-linecap="round" stroke-linejoin="round"/>
<path d="M33.5 47.4583C39.6672 47.4583 44.6667 42.4588 44.6667 36.2917C44.6667 30.1245 39.6672 25.125 33.5 25.125C27.3328 25.125 22.3333 30.1245 22.3333 36.2917C22.3333 42.4588 27.3328 47.4583 33.5 47.4583Z" stroke="black" stroke-width="2" stroke-linecap="round" stroke-linejoin="round"/>
</svg>
